<svg width="27" height="25" viewBox="0 0 27 25" fill="none" xmlns="http://www.w3.org/2000/svg">
<g id="switch" clip-path="url(#clip0_6_44)">
<path id="Icon" d="M3.13611 10.2012C2.72468 9.80422 2.74415 9.17839 3.1796 8.80335L7.63978 4.96186C8.07524 4.58681 8.76177 4.60456 9.1732 5.0015L13.3874 9.06727C13.7988 9.46421 13.7793 10.09 13.3439 10.4651C12.9084 10.8401 12.2219 10.8224 11.8104 10.4254L9.39479 8.09485L9.03848 19.5463C9.0215 20.0922 8.52228 20.5222 7.92344 20.5067C7.3246 20.4912 6.85292 20.0361 6.8699 19.4902L7.22621 8.03878L4.66953 10.2408C4.23408 10.6159 3.54754 10.5981 3.13611 10.2012ZM13.838 15.0141C14.2734 14.6391 14.96 14.6568 15.3714 15.0538L17.7871 17.3844L18.1434 5.9329C18.1604 5.38701 18.6596 4.95704 19.2584 4.97252C19.8573 4.98801 20.3289 5.44308 20.312 5.98897L19.9556 17.4404L22.5123 15.2384C22.9478 14.8633 23.6343 14.8811 24.0457 15.278C24.4572 15.675 24.4377 16.3008 24.0023 16.6759L19.5421 20.5173C19.333 20.6975 19.0539 20.7945 18.7664 20.787C18.4788 20.7796 18.2062 20.6683 18.0087 20.4777L13.7945 16.4119C13.3831 16.015 13.4025 15.3892 13.838 15.0141Z" fill="#F4F4F4"/>
</g>
<defs>
<clipPath id="clip0_6_44">
<rect width="23.7332" height="26.0317" fill="white" transform="matrix(0.0310994 -0.999516 0.999666 0.0258462 0.210388 24.2641)"/>
</clipPath>
</defs>
</svg>
